# xmcd CD database file
#
# Track frame offsets:
#	150
#	17471
#	43182
#	63530
#	80418
#	98822
#	119446
#	137956
#	155764
#	170669
#	184437
#	200482
#	219256
#	251667
#	272566
#	308129
#	330019
#	346001
#
# Disc length: 4727 seconds
#
# Revision: 2
# Processed by: cddbd v1.4PL0 Copyright (c) Steve Scherf et al.
# Submitted via: CDex 1.50beta10
#
DISCID=02127512
DTITLE=R.Kelly - Chocolate Factory
DYEAR=2003
DGENRE=Pop
TTITLE0=Chocolate Factory
TTITLE1=Step In The Name Of Love
TTITLE2=Heart Of A Woman
TTITLE3=I'll Never Leave
TTITLE4=Been Around The World Featuring Ja Rule
TTITLE5=You Made Me Love You
TTITLE6=Forever
TTITLE7=Dream Girl
TTITLE8=Ignition
TTITLE9=Ignition - Remix
TTITLE10=Forever More
TTITLE11=You Knock Me Out
TTITLE12=Step In The Name Of Love - Remix
TTITLE13=Imagine That
TTITLE14=Showdown Featuring Ronald Isley
TTITLE15=Snake Featuring Big Tigger
TTITLE16=Who's That Featuring Fat Joe [Edited]
TTITLE17=Raindrops
EXTD=YEAR: 2003
EXTT0=
EXTT1=
EXTT2=
EXTT3=
EXTT4=
EXTT5=
EXTT6=
EXTT7=
EXTT8=
EXTT9=
EXTT10=
EXTT11=
EXTT12=
EXTT13=
EXTT14=
EXTT15=
EXTT16=
EXTT17=
PLAYORDER=
